<?xml version="1.0" encoding="UTF-8" standalone="no"?>
<!-- Created with Inkscape (http://www.inkscape.org/) -->

<svg
   xmlns:dc="http://purl.org/dc/elements/1.1/"
   xmlns:cc="http://creativecommons.org/ns#"
   xmlns:rdf="http://www.w3.org/1999/02/22-rdf-syntax-ns#"
   xmlns:svg="http://www.w3.org/2000/svg"
   xmlns="http://www.w3.org/2000/svg"
   xmlns:sodipodi="http://sodipodi.sourceforge.net/DTD/sodipodi-0.dtd"
   xmlns:inkscape="http://www.inkscape.org/namespaces/inkscape"
   width="1658.8502"
   height="1322.056"
   viewBox="0 0 438.90414 349.794"
   version="1.1"
   id="svg8"
   inkscape:version="0.92.0 r15299"
   sodipodi:docname="pikachu.svg">
  <defs
     id="defs2" />
  <sodipodi:namedview
     id="base"
     pagecolor="#ffffff"
     bordercolor="#666666"
     borderopacity="1.0"
     inkscape:pageopacity="0.0"
     inkscape:pageshadow="2"
     inkscape:zoom="0.35"
     inkscape:cx="1008.4183"
     inkscape:cy="625.55816"
     inkscape:document-units="px"
     inkscape:current-layer="layer1"
     showgrid="false"
     inkscape:window-width="1920"
     inkscape:window-height="1017"
     inkscape:window-x="2812"
     inkscape:window-y="226"
     inkscape:window-maximized="1"
     fit-margin-top="50"
     fit-margin-left="50"
     fit-margin-right="50"
     fit-margin-bottom="50"
     units="px" />
  <metadata
     id="metadata5">
    <rdf:RDF>
      <cc:Work
         rdf:about="">
        <dc:format>image/svg+xml</dc:format>
        <dc:type
           rdf:resource="http://purl.org/dc/dcmitype/StillImage" />
        <dc:title></dc:title>
      </cc:Work>
    </rdf:RDF>
  </metadata>
  <g
     inkscape:label="Layer 1"
     inkscape:groupmode="layer"
     id="layer1"
     transform="translate(467.36066,-413.35783)">
    <g
       id="g4598">
      <path
         sodipodi:nodetypes="ccccssscccsscsscccccccssscsscccccccccccsc"
         inkscape:connector-curvature="0"
         id="path4520"
         d="m -378.26673,748.22715 c 0.0755,-0.25466 0.86459,-2.84427 1.75356,-5.75469 2.93455,-9.60755 4.22775,-15.30228 4.22941,-18.62463 8e-4,-1.35874 -0.19003,-2.1391 -0.9699,-3.96875 -0.94584,-2.21901 -1.64809,-3.57428 -7.69223,-14.84516 -9.70087,-18.08983 -14.36267,-30.2129 -15.66572,-40.7389 -1.52044,-12.28204 2.43523,-34.61713 10.85354,-61.28292 5.93573,-18.80197 14.44483,-39.86998 18.58388,-46.01255 l 11.57362,-12.28403 -11.57362,12.28403 c -0.84257,-0.47684 -9.16229,-8.18154 -13.44368,-12.43542 -33.32819,-33.11404 -50.84412,-68.77316 -48.28183,-98.2927 0.27631,-3.1833 1.24388,-9.43528 1.54229,-9.96551 0.20908,-0.37151 3.59841,1.15778 14.32866,6.46524 31.6471,15.65345 59.43579,32.87751 77.91979,48.29646 8.87519,7.40349 17.01254,15.73972 21.30319,21.82385 0.63705,0.90335 1.34321,1.64085 1.56922,1.6389 0.22602,-0.002 2.73265,-0.29228 5.57031,-0.64517 16.09295,-2.00129 38.72613,-3.8905 55.5625,-4.63783 7.69694,-0.34166 24.04369,-0.34199 29.63333,-5.3e-4 8.08728,0.49392 14.43061,1.37602 18.98375,2.63987 l 1.91815,0.53243 8.00372,-4.00398 c 41.84441,-20.93329 83.72346,-39.07935 108.545419,-47.03248 5.64846,-1.80981 13.66673,-3.99875 14.64773,-3.99875 h 0.6464 l -0.18592,4.81337 c -0.4323,11.19205 -2.37236,22.22008 -5.75508,32.71432 -7.53766,23.38419 -20.92521,42.35543 -40.814759,57.83785 -4.81333,3.74681 -19.70511,13.09364 -20.78564,13.09364 -8.09825,-9.22571 -6.98677,-7.00352 -10.56836,-10.32887 v 0 c 5.4948,4.31605 13.974,13.89758 18.61177,23.44572 3.7728,7.7673 5.57451,13.01816 9.91722,28.90248 1.74109,6.36833 4.36399,15.80197 5.82869,20.96368 4.80031,16.91677 10.90983,42.02215 14.038339,57.68697 3.64242,18.23783 6.6057,38.10529 8.18862,54.90104 0.30173,3.20146 0.58611,6.14825 0.63198,6.54843 l 0.0834,0.72761 H -233.96948 c -137.43257,0 -144.42786,-0.0225 -144.29725,-0.46302 z"
         style="opacity:1;fill:#ecbc3f;fill-opacity:1;stroke:#5a0f08;stroke-width:2.46499991;stroke-linecap:round;stroke-linejoin:round;stroke-miterlimit:4;stroke-dasharray:none;stroke-opacity:1" />
      <path
         id="path4516"
         d="m -260.36416,691.7766 c -12.586,-0.9049 -21.64015,-7.56401 -24.06456,-17.69893 -0.64533,-2.69772 -0.70718,-6.22586 -0.14248,-8.12742 0.61633,-2.07539 2.32407,-4.41341 4.18962,-5.7359 4.49966,-3.18979 9.25584,-4.49456 17.9755,-4.93122 10.43681,-0.52266 16.42663,0.7902 19.32601,4.2359 1.65386,1.96548 3.27753,6.25096 4.04882,10.68628 0.51527,2.96315 0.37137,8.75329 -0.27705,11.1484 -0.60624,2.23925 -1.81292,4.60111 -3.09464,6.05721 -2.83007,3.21514 -9.9371,4.94258 -17.96122,4.36568 z"
         style="opacity:1;fill:#f08061;fill-opacity:1;stroke:#7e280a;stroke-width:6.56500006;stroke-miterlimit:4;stroke-dasharray:none;stroke-opacity:1;paint-order:stroke markers fill"
         inkscape:connector-curvature="0" />
      <path
         id="path4514"
         d="m -156.66895,672.21511 c 16.33924,-1.67672 26.19616,-15.99533 19.97416,-29.01532 -2.01676,-4.22024 -5.68293,-7.75248 -10.53137,-10.14669 -4.11935,-2.03414 -7.05821,-2.69706 -12.06717,-2.72195 -3.38087,-0.0167 -4.50561,0.0809 -6.40487,0.55647 -3.53851,0.88601 -6.24586,2.03409 -8.86394,3.75885 -10.50335,6.91955 -12.66208,19.77123 -4.87511,29.02318 3.79032,4.50342 10.39839,7.84974 16.83994,8.52771 3.03517,0.31945 2.98971,0.31932 5.92836,0.0177 z"
         style="opacity:1;fill:#cc5521;fill-opacity:1;stroke-width:0.26458332"
         inkscape:connector-curvature="0" />
      <path
         id="path4512"
         d="m -362.84234,667.5771 c 7.9736,-1.64701 13.97579,-6.40377 16.42222,-13.01467 0.81188,-2.19395 1.08929,-6.12212 0.60684,-8.59285 -0.6761,-3.46247 -2.50859,-6.64829 -5.40869,-9.4031 -2.97506,-2.82602 -6.70336,-4.76277 -11.13907,-5.78642 -3.29491,-0.76038 -8.72123,-0.64198 -12.15695,0.2653 -9.5325,2.51725 -15.8437,9.75821 -15.82951,18.16148 0.0149,8.8102 7.09451,16.34884 17.27084,18.39063 2.45677,0.49292 7.80076,0.48228 10.23432,-0.0204 z"
         style="opacity:1;fill:#cc5521;fill-opacity:1;stroke-width:0.26458332"
         inkscape:connector-curvature="0" />
      <path
         id="path4510"
         d="m -266.1684,629.25223 c 3.5364,-0.63093 5.53966,-2.12569 5.53966,-4.13356 0,-3.01792 -5.04489,-5.32249 -11.64167,-5.31807 -4.89914,0.003 -7.88256,1.05031 -8.85959,3.10925 -1.95513,4.12014 6.74509,7.80825 14.9616,6.34238 z"
         style="opacity:1;fill:#7e280a;fill-opacity:1;stroke-width:0.26458332"
         inkscape:connector-curvature="0" />
      <path
         id="path4508"
         d="m -319.89541,612.52928 c 2.07774,-0.68448 5.20059,-2.89538 6.697,-4.74131 1.6083,-1.98395 3.18429,-5.24291 3.73017,-7.71357 0.59694,-2.70173 0.54914,-6.89576 -0.10822,-9.49659 -2.55332,-10.10213 -11.95653,-15.41197 -20.29017,-11.45753 -3.18375,1.51075 -5.69049,4.08445 -7.53786,7.73921 -2.49804,4.94204 -2.49804,12.33183 0,17.27387 2.3138,4.57752 5.83888,7.63038 10.04059,8.69554 1.92812,0.48879 5.5117,0.34502 7.46849,-0.29962 z"
         style="opacity:1;fill:#7e280a;fill-opacity:1;stroke-width:0.26458332"
         inkscape:connector-curvature="0" />
      <path
         id="path4506"
         d="m -330.87562,596.06069 c -3.32561,-1.51599 -4.96329,-4.98648 -3.9686,-8.41005 0.81357,-2.8002 3.86955,-5.1188 6.74672,-5.1188 1.33719,0 3.33837,0.78865 4.47933,1.76526 2.18266,1.86827 2.96249,4.95587 1.97999,7.83936 -0.51601,1.51441 -2.72839,3.63881 -4.27075,4.10091 -1.53677,0.46043 -3.74109,0.38201 -4.96669,-0.17668 z"
         style="opacity:1;fill:#f7ebe2;fill-opacity:1;stroke-width:0.26458332"
         inkscape:connector-curvature="0" />
      <path
         id="path4504"
         d="m -192.36624,612.52928 c 2.08187,-0.68584 5.20128,-2.89549 6.69343,-4.74131 4.6256,-5.722 5.52013,-14.39464 2.18204,-21.15509 -2.48737,-5.03757 -7.0409,-8.34231 -12.10254,-8.78349 -6.94124,-0.605 -13.52376,4.69235 -15.58732,12.54409 -0.748,2.84604 -0.748,7.35985 0,10.20589 1.59089,6.05316 6.0734,10.89716 11.30924,12.2212 1.96594,0.49715 5.53199,0.35875 7.50515,-0.29129 z"
         style="opacity:1;fill:#7e280a;fill-opacity:1;stroke-width:0.26458332"
         inkscape:connector-curvature="0" />
      <path
         id="path4502"
         d="m -203.34645,596.06069 c -3.3256,-1.51599 -4.96329,-4.98648 -3.96859,-8.41005 0.81357,-2.8002 3.86953,-5.1188 6.74671,-5.1188 3.57117,0 6.87012,3.28548 6.87658,6.84847 0.004,2.2867 -0.47384,3.43823 -2.10373,5.06812 -0.958,0.95801 -1.84269,1.57651 -2.55458,1.78594 -1.57308,0.46279 -3.76751,0.38651 -4.99639,-0.17368 z"
         style="opacity:1;fill:#f7ebe2;fill-opacity:1;stroke-width:0.26458332"
         inkscape:connector-curvature="0" />
      <path
         sodipodi:nodetypes="czcc"
         inkscape:connector-curvature="0"
         id="path4522"
         d="m -427.45129,436.12175 c 0,0 -24.57401,-10.1061 -25.37756,-8.01428 -0.80355,2.09183 18.42716,36.81331 30.05116,55.61795 -7.94783,-22.25668 -6.83323,-34.93164 -4.6736,-47.60367 z"
         style="opacity:1;fill:#7e280a;fill-opacity:1;stroke:#5a0f08;stroke-width:2.46499991;stroke-linecap:butt;stroke-linejoin:round;stroke-miterlimit:4;stroke-dasharray:none;stroke-opacity:1;paint-order:fill markers stroke" />
      <path
         style="opacity:1;fill:#7e280a;fill-opacity:1;stroke:#5a0f08;stroke-width:2.46499991;stroke-linecap:round;stroke-linejoin:round;stroke-miterlimit:4;stroke-dasharray:none;stroke-opacity:1;paint-order:fill markers stroke"
         d="m -68.725241,457.38393 c 4.96774,-2.73226 24.77008,-6.14125 25.75554,-2.9116 0.98545,3.22966 -23.89542,42.05604 -38.82671,57.93138 7.94783,-22.25669 15.2308,-42.34775 13.07117,-55.01978 z"
         id="path4524"
         inkscape:connector-curvature="0"
         sodipodi:nodetypes="czcc" />
    </g>
  </g>
</svg>
